<svg id="Laag_1" data-name="Laag 1" xmlns="http://www.w3.org/2000/svg" viewBox="0 0 850.39 143.59"><path fill="currentColor" d="M377.86,383.4a102.41,102.41,0,0,0,12.56-20.84,52.12,52.12,0,0,0,4.77-21.39,24.43,24.43,0,0,0-.88-6.51,17.55,17.55,0,0,0-2.73-5.73,14.26,14.26,0,0,0-4.56-4.08,12.24,12.24,0,0,0-6.24-1.59,10.63,10.63,0,0,0-7.88,3.54,11.08,11.08,0,0,0-3.4,8,13.79,13.79,0,0,0,1.25,6.33,11.46,11.46,0,0,0,3.4,4,74.8,74.8,0,0,1-4.45,26,99.75,99.75,0,0,1-12,22.86A128.42,128.42,0,0,1,340.3,414a207.5,207.5,0,0,1-20.78,17.21c-7.29,5.25-14.61,10.11-22,14.51s-14.41,8.41-21,12.06l-.39-.39a79.34,79.34,0,0,0,12.54-17.81,192.76,192.76,0,0,0,9.55-21.3c2.79-7.4,5.22-14.85,7.37-22.39s4.15-14.6,6-21.2,3.66-12.47,5.34-17.5a42.06,42.06,0,0,1,5.46-11.5,14.44,14.44,0,0,1,4.65-3.48c2.22-1.19,4.5-2.42,6.83-3.71a36.11,36.11,0,0,0,6.21-4.27,6.62,6.62,0,0,0,2.75-5.07,4.94,4.94,0,0,0-1-2.93,3.66,3.66,0,0,0-3.12-1.33c-1.17,0-3.35.68-6.5,2a60.9,60.9,0,0,0-10.8,6.36,96.47,96.47,0,0,0-12.66,11,76.31,76.31,0,0,0-11.87,16.05q-9.53,16.75-18.4,30a210.73,210.73,0,0,1-18.55,24,176,176,0,0,1-20.83,19.66,215.13,215.13,0,0,1-25.1,17l-.4-.39a108.85,108.85,0,0,0,15.27-22,217.43,217.43,0,0,0,10.71-23.66q4.58-12,8.27-23.73T256,359.07a111.28,111.28,0,0,1,10-18.75,48,48,0,0,1,14-13.92l-1.54-3.14a75.11,75.11,0,0,1-12,4.6c-4.86,1.5-11.07,3.34-18.58,5.53-4,1.17-8.7,2.41-14,3.7s-10.88,2.82-16.63,4.58-11.46,3.77-17.05,6a75.22,75.22,0,0,0-14.87,8,41.91,41.91,0,0,0-10.6,10.52,23.16,23.16,0,0,0-4.09,13.51,20.79,20.79,0,0,0,1.36,7.48,18.59,18.59,0,0,0,3.9,6.33,19,19,0,0,0,6,4.38,17.27,17.27,0,0,0,7.58,1.64q10.69,0,17.87-6c4.82-4,7.21-9.59,7.21-16.73a28.78,28.78,0,0,0-.38-4.76c-.25-1.5-.59-2.94-1-4.38h-2a27.56,27.56,0,0,1,.77,4.58c.14,1.49.2,3,.2,4.56a20.57,20.57,0,0,1-.77,5.35,14.64,14.64,0,0,1-2.52,5.15,13.18,13.18,0,0,1-11.11,5.26c-4.13,0-7.32-1.48-9.52-4.47a15.88,15.88,0,0,1-3.31-9.73q0-12.24,12.16-21.41t33.55-15.76l36.8-11.27.37.37a118.74,118.74,0,0,0-23.36,18.31,104.24,104.24,0,0,0-24.49,40.07c-2.35,7-4.48,14.09-6.44,21.21s-4,14.36-6,21.7a136.32,136.32,0,0,1-8.37,21.88,10.49,10.49,0,0,1-2.53,3.51,30.05,30.05,0,0,1-3,2.33,18.05,18.05,0,0,0-2.43,1.86,3.07,3.07,0,0,0-1,2.43,3.52,3.52,0,0,0,.78,2.32,3,3,0,0,0,2.53,1,11.3,11.3,0,0,0,5.53-1.75A45.75,45.75,0,0,0,205,461c1.87-1.57,3.58-3,5-4.47s2.58-2.42,3.24-2.93a94.55,94.55,0,0,1,9.22-5.34,120.87,120.87,0,0,0,17.32-12,202.73,202.73,0,0,0,22.36-21.52c8.13-8.86,16.32-20.15,24.61-33.76l.42.4a95.49,95.49,0,0,0-8.39,21.4q-3.3,12.24-6.1,24.23t-5.94,22.06c-2.07,6.77-4.68,11.88-7.78,15.39l4.06,2.32a44.75,44.75,0,0,1,4.31-2.32q2.7-1.35,8.75-4.48c1.16-.65,3.74-2.06,7.78-4.19s8.91-4.9,14.67-8.28,12.17-7.34,19.18-12,14.1-9.63,21.3-15.17,14.17-11.38,20.9-17.6A155.6,155.6,0,0,0,377.86,383.4Zm632.8,40.47a161.44,161.44,0,0,1-12,12.83,140.69,140.69,0,0,1-21.21,16.82q-10.51,6.72-19.67,6.72a16.5,16.5,0,0,1-7.48-1.54,12.9,12.9,0,0,1-4.84-4.1,16.1,16.1,0,0,1-2.67-5.92,33.23,33.23,0,0,1-.55-10.8c.12-1.31.32-2.61.55-3.92,3.51-.76,8.33-1.9,14.44-3.38a141.41,141.41,0,0,0,18.18-5.83,66.28,66.28,0,0,0,15.67-8.68q6.6-5,6.59-11.85a10.21,10.21,0,0,0-6-9.83c-4-2-9.15-3-15.38-3a54.74,54.74,0,0,0-19.74,4.05,78.12,78.12,0,0,0-19.26,10.92,62.75,62.75,0,0,0-14.7,16,36.72,36.72,0,0,0-5.16,12.77c-.56.54-1.07,1.08-1.64,1.61a140.19,140.19,0,0,1-21.21,16.82q-10.51,6.72-19.64,6.72a16.58,16.58,0,0,1-7.51-1.54,13.5,13.5,0,0,1-4.85-4.1,15.57,15.57,0,0,1-2.63-5.92,31.75,31.75,0,0,1-.79-6.93,36.12,36.12,0,0,1,.21-3.87c.13-1.31.32-2.61.58-3.92,3.5-.76,8.3-1.9,14.4-3.38a138.48,138.48,0,0,0,18.18-5.83,65.37,65.37,0,0,0,15.68-8.68q6.6-5,6.61-11.85a10.21,10.21,0,0,0-6-9.83c-4-2-9.16-3-15.36-3a54.66,54.66,0,0,0-19.74,4.05,77.94,77.94,0,0,0-19.26,10.92,62.83,62.83,0,0,0-14.72,16c-.55.9-1.08,1.82-1.56,2.72a.29.29,0,0,1-.17.08,14,14,0,0,1-5.84,1.28,6.9,6.9,0,0,1-6.5-3.51,14.75,14.75,0,0,1-2-7.58,19.66,19.66,0,0,1,1.25-6.8,40.13,40.13,0,0,1,3.23-6.83,52.86,52.86,0,0,1,4.27-6.24,62.87,62.87,0,0,1,4.67-5.22c-6.61.25-11.84.55-15.66.87a38.22,38.22,0,0,0-9.14,1.66,15.47,15.47,0,0,0-5.57,3.09,51.74,51.74,0,0,0-4.84,5.24q-7,3-16.24,12.27a187.38,187.38,0,0,0-20,24.71l-.39-.36,29.77-44-28,.79L751.9,421.08a19.57,19.57,0,0,1-7.5,1.42,23,23,0,0,1-6.91-1.15,18.6,18.6,0,0,1-7.08-4.69,36.56,36.56,0,0,0,1.15-9.32c0-4.83-1.07-8.68-3.2-11.59s-5.68-4.36-10.62-4.36a10.06,10.06,0,0,0-8.36,4.05,14.8,14.8,0,0,0-3.1,9.16,30.92,30.92,0,0,0,.29,4.29,13.11,13.11,0,0,0,1.08,3.87,111.18,111.18,0,0,1-7.33,18.5,93.3,93.3,0,0,1-10.2,16.33,58.74,58.74,0,0,1-11.85,11.69c-4.15,3-8.25,4.47-12.27,4.47-2.72,0-4.73-.83-6-2.54a10.15,10.15,0,0,1-1.94-6.39q0-5.86,4-14.22a161.64,161.64,0,0,1,9.44-16.93q5.44-8.57,10.9-16.62c3.62-5.4,6.41-9.83,8.35-13.35l-27.62.79c-3.23,5-6.26,9.81-9.05,14.28s-5.21,8.66-7.3,12.58a78.16,78.16,0,0,0-4.85,11c-.14.43-.25.86-.38,1.27-1,1-2,2.07-3.12,3.1a139.7,139.7,0,0,1-21.21,16.82c-7,4.48-13.56,6.72-19.67,6.72A16.6,16.6,0,0,1,590,458.7a13.18,13.18,0,0,1-4.83-4.1,15.24,15.24,0,0,1-2.61-5.92,29,29,0,0,1-.8-6.93,33.65,33.65,0,0,1,.19-3.87,28,28,0,0,1,.61-3.92c3.47-.76,8.27-1.9,14.38-3.38a139.31,139.31,0,0,0,18.17-5.83,65.88,65.88,0,0,0,15.67-8.68c4.4-3.35,6.63-7.31,6.63-11.85a10.27,10.27,0,0,0-6-9.83c-4-2-9.16-3-15.39-3a54.78,54.78,0,0,0-19.73,4.05A79,79,0,0,0,577,406.36a62.27,62.27,0,0,0-14.67,16,36.21,36.21,0,0,0-5.19,12.8c-1.75,1.93-3.59,3.84-5.43,5.76a98.51,98.51,0,0,1-11.09,10,68.08,68.08,0,0,1-11.35,7.3,24,24,0,0,1-10.7,2.82,7.72,7.72,0,0,1-5.16-1.57c-1.25-1-1.85-2.65-1.85-4.86,0-3.23,1.14-7.38,3.49-12.43s5.06-10.31,8.17-15.77,6.28-10.71,9.43-15.75,5.68-9.15,7.5-12.29H567l1.57-3.08H541.89l17.49-29.21-27,1-16.51,28.23H499.66l-1.37,3.08h15.76c-4.66,8.07-8.51,14.74-11.48,20.05s-5.37,9.84-7.19,13.54c-.12.21-.18.42-.31.64-3.28,3.86-6.65,7.62-10.1,11.12a115.85,115.85,0,0,1-14.1,12.35c-4.56,3.3-8.32,5-11.29,5a3.94,3.94,0,0,1-2.82-1.2,4.12,4.12,0,0,1-1.27-3.27q0-5.26,4.2-14.1t13-24q8.87-15.08,22.67-37.44t33.28-54.66L500,328.34q-12.63,21.6-22.45,37.94t-17.13,28.59q-7.29,12.28-12.28,21.12c-3.29,5.91-6,11-8,15.35-.5,1.12-1,2.17-1.41,3.21-.73.7-1.43,1.43-2.17,2.15a141.69,141.69,0,0,1-21.21,16.82c-7,4.48-13.54,6.72-19.64,6.72a16.47,16.47,0,0,1-7.5-1.54,13.2,13.2,0,0,1-4.86-4.1,15.74,15.74,0,0,1-2.64-5.92,31.13,31.13,0,0,1-.78-6.93,33.7,33.7,0,0,1,.21-3.87c.11-1.31.33-2.61.57-3.92,3.5-.76,8.31-1.9,14.41-3.38a140.06,140.06,0,0,0,18.19-5.83A66,66,0,0,0,429,416.07c4.38-3.35,6.6-7.31,6.6-11.85a10.24,10.24,0,0,0-6-9.83c-4-2-9.15-3-15.36-3a54.59,54.59,0,0,0-19.75,4.05,78.79,78.79,0,0,0-19.28,10.92,61.91,61.91,0,0,0-14.67,16,35.43,35.43,0,0,0-5.84,19.43c0,7.95,2.31,13.95,7,18.08s11.48,6.25,20.43,6.25a59.82,59.82,0,0,0,28.2-6.62Q423,452.85,436.41,440c.14-.16.28-.28.41-.41-.36,1.07-.72,2.1-1,3a33.06,33.06,0,0,0-1.35,9.05A14.11,14.11,0,0,0,438.55,462q4.11,4.05,12.26,4.06a29.25,29.25,0,0,0,13.33-3.4,68.73,68.73,0,0,0,13-8.66,124.2,124.2,0,0,0,12.09-11.48c1.05-1.15,2-2.26,3-3.4-.28.75-.49,1.47-.71,2.14A28.45,28.45,0,0,0,490.5,449c0,5.07,1.48,9.21,4.4,12.37s7.36,4.76,13.32,4.76a44.63,44.63,0,0,0,21.58-5.36,86.69,86.69,0,0,0,18.49-13.4c2.89-2.71,5.65-5.51,8.3-8.43-.06,1-.13,1.9-.13,2.86,0,7.95,2.33,13.95,7,18.08s11.48,6.25,20.43,6.25a59.88,59.88,0,0,0,28.2-6.62q12.63-6.61,26.1-19.44l2.33-2.32a28.29,28.29,0,0,0-.4,4.66q0,10.89,6.34,17.29c4.19,4.28,10.26,6.43,18.15,6.43a64,64,0,0,0,20.74-3.51A78.79,78.79,0,0,0,704.74,453a69,69,0,0,0,15.65-14.78,53,53,0,0,0,9.44-18.78,22.32,22.32,0,0,0,14.57,5.44,20.23,20.23,0,0,0,5.83-.84l-22.55,39.76,26.06-1.18a149.33,149.33,0,0,1,8.08-14.48c3.57-5.77,7.54-11.56,11.87-17.32a174.53,174.53,0,0,1,13.43-15.86c4.6-4.79,8.86-8.23,12.74-10.31v.4a21.88,21.88,0,0,0-1.57,9.15,15.36,15.36,0,0,0,1.45,6.6,17.25,17.25,0,0,0,4.09,5.44,20.43,20.43,0,0,0,6.55,3.8,23.63,23.63,0,0,0,8.54,1.48,43.41,43.41,0,0,0,14.68-2.24c1.1-.41,2.15-.85,3.15-1.25a34.75,34.75,0,0,0-2.84,13.77c0,7.95,2.32,13.95,7,18.08s11.46,6.25,20.41,6.25a59.81,59.81,0,0,0,28.19-6.62q12.69-6.61,26.1-19.44c.44-.45.87-.88,1.32-1.31-.1,1-.16,2-.16,3,0,7.95,2.33,13.95,7,18.08s11.48,6.25,20.43,6.25a60,60,0,0,0,28.22-6.62q12.66-6.61,26-19.44c4.68-4.53,8.85-9,12.56-13.33s7-8.66,10-12.95l-1.72-1.16C1017,416,1014.1,419.71,1010.66,423.87Zm-63.54-2.73a97.81,97.81,0,0,1,7.3-12.55,56.9,56.9,0,0,1,9.15-10.49c3.32-2.94,6.38-4.4,9.24-4.4,3.63,0,5.46,1.83,5.46,5.46a23.15,23.15,0,0,1-2.34,9.73,32.22,32.22,0,0,1-6.89,9.52,49.5,49.5,0,0,1-11.12,8.07,52.76,52.76,0,0,1-14.67,5.38A44.32,44.32,0,0,1,947.12,421.14Zm-82.87,0a96.73,96.73,0,0,1,7.31-12.55,55.1,55.1,0,0,1,9.15-10.49c3.3-2.94,6.36-4.4,9.22-4.4,3.65,0,5.46,1.83,5.46,5.46a23.31,23.31,0,0,1-2.34,9.73,31.5,31.5,0,0,1-6.93,9.52,49.25,49.25,0,0,1-11,8.07,53.38,53.38,0,0,1-14.71,5.38A44.09,44.09,0,0,1,864.25,421.14Zm-277.43,0a97.81,97.81,0,0,1,7.3-12.55,56.13,56.13,0,0,1,9.14-10.49c3.31-2.94,6.37-4.4,9.23-4.4,3.63,0,5.47,1.83,5.47,5.46a23,23,0,0,1-2.36,9.73,31.77,31.77,0,0,1-6.91,9.52,48.42,48.42,0,0,1-11.06,8.07A53.66,53.66,0,0,1,583,431.86,41.89,41.89,0,0,1,586.82,421.14Zm-201.74,0a95.36,95.36,0,0,1,7.28-12.55,55.06,55.06,0,0,1,9.14-10.49c3.3-2.94,6.4-4.4,9.24-4.4,3.63,0,5.47,1.83,5.47,5.46a23.17,23.17,0,0,1-2.35,9.73,32.3,32.3,0,0,1-6.91,9.52,49.32,49.32,0,0,1-11.06,8.07,53.62,53.62,0,0,1-14.71,5.38A43.76,43.76,0,0,1,385.08,421.14Z" transform="translate(-170.66 -323.26)"/><path fill="currentColor" d="M1012.34,366.75a3.44,3.44,0,0,0,1.26-2.69c0-2.16-1.81-3.65-4.16-3.65H1004v13.12h1.93v-5.78h3.37l3,5.78h2.07l-3.1-6.14A3.32,3.32,0,0,0,1012.34,366.75Zm-3.26-.79h-3.15V362.2h3.51a2.05,2.05,0,0,1,2.25,1.86C1011.66,365.19,1010.83,365.91,1009.08,366Z" transform="translate(-170.66 -323.26)"/><path fill="currentColor" d="M996.55,367a12.26,12.26,0,0,1,12.27-12.26h0A12.25,12.25,0,0,1,1021.06,367h0a12.27,12.27,0,0,1-12.24,12.27h0A12.27,12.27,0,0,1,996.55,367Zm1.75,0a10.52,10.52,0,0,0,10.52,10.51h0A10.57,10.57,0,0,0,1019.34,367h0a10.55,10.55,0,0,0-10.52-10.5h0A10.5,10.5,0,0,0,998.3,367Z" transform="translate(-170.66 -323.26)"/></svg>